<mxfile host="app.diagrams.net" modified="2022-04-24T16:13:40.483Z" agent="5.0 (Windows NT 10.0; Win64; x64) AppleWebKit/537.36 (KHTML, like Gecko) Chrome/100.0.4896.127 Safari/537.36 OPR/86.0.4363.23" etag="IYMjZd94FotbWCckXivt" version="17.4.6" type="github">
  <diagram id="IfSzvWa2H0spGtNWGPGF" name="Page-1">
    <mxGraphModel dx="1382" dy="764" grid="1" gridSize="10" guides="1" tooltips="1" connect="1" arrows="1" fold="1" page="1" pageScale="1" pageWidth="850" pageHeight="1100" math="0" shadow="0">
      <root>
        <mxCell id="0" />
        <mxCell id="1" parent="0" />
        <mxCell id="jL4y7jOuyYx-YZkG-ypq-2" value="C1" style="ellipse;whiteSpace=wrap;html=1;" vertex="1" parent="1">
          <mxGeometry x="230" y="440" width="40" height="40" as="geometry" />
        </mxCell>
        <mxCell id="jL4y7jOuyYx-YZkG-ypq-3" value="E1" style="ellipse;whiteSpace=wrap;html=1;" vertex="1" parent="1">
          <mxGeometry x="460" y="440" width="40" height="40" as="geometry" />
        </mxCell>
        <mxCell id="jL4y7jOuyYx-YZkG-ypq-4" value="" style="endArrow=none;html=1;rounded=0;entryX=0;entryY=0.5;entryDx=0;entryDy=0;" edge="1" parent="1" source="jL4y7jOuyYx-YZkG-ypq-2" target="jL4y7jOuyYx-YZkG-ypq-3">
          <mxGeometry width="50" height="50" relative="1" as="geometry">
            <mxPoint x="400" y="420" as="sourcePoint" />
            <mxPoint x="450" y="370" as="targetPoint" />
          </mxGeometry>
        </mxCell>
        <mxCell id="jL4y7jOuyYx-YZkG-ypq-73" value="E2" style="ellipse;whiteSpace=wrap;html=1;" vertex="1" parent="1">
          <mxGeometry x="460" y="520" width="40" height="40" as="geometry" />
        </mxCell>
        <mxCell id="jL4y7jOuyYx-YZkG-ypq-74" value="E3" style="ellipse;whiteSpace=wrap;html=1;" vertex="1" parent="1">
          <mxGeometry x="501" y="638" width="40" height="40" as="geometry" />
        </mxCell>
        <mxCell id="jL4y7jOuyYx-YZkG-ypq-75" value="C2" style="ellipse;whiteSpace=wrap;html=1;" vertex="1" parent="1">
          <mxGeometry x="230" y="500" width="40" height="40" as="geometry" />
        </mxCell>
        <mxCell id="jL4y7jOuyYx-YZkG-ypq-76" value="C3" style="ellipse;whiteSpace=wrap;html=1;" vertex="1" parent="1">
          <mxGeometry x="230" y="560" width="40" height="40" as="geometry" />
        </mxCell>
        <mxCell id="jL4y7jOuyYx-YZkG-ypq-77" value="C4" style="ellipse;whiteSpace=wrap;html=1;" vertex="1" parent="1">
          <mxGeometry x="230" y="640" width="40" height="40" as="geometry" />
        </mxCell>
        <mxCell id="jL4y7jOuyYx-YZkG-ypq-78" value="" style="endArrow=none;html=1;rounded=0;entryX=0;entryY=0.5;entryDx=0;entryDy=0;" edge="1" parent="1" source="jL4y7jOuyYx-YZkG-ypq-75" target="jL4y7jOuyYx-YZkG-ypq-73">
          <mxGeometry width="50" height="50" relative="1" as="geometry">
            <mxPoint x="270" y="520" as="sourcePoint" />
            <mxPoint x="460" y="520" as="targetPoint" />
          </mxGeometry>
        </mxCell>
        <mxCell id="jL4y7jOuyYx-YZkG-ypq-79" value="" style="endArrow=none;html=1;rounded=0;exitX=1;exitY=0.5;exitDx=0;exitDy=0;" edge="1" parent="1" source="jL4y7jOuyYx-YZkG-ypq-76" target="jL4y7jOuyYx-YZkG-ypq-73">
          <mxGeometry width="50" height="50" relative="1" as="geometry">
            <mxPoint x="279.90990945187855" y="531.89618185256" as="sourcePoint" />
            <mxPoint x="470" y="550" as="targetPoint" />
          </mxGeometry>
        </mxCell>
        <mxCell id="jL4y7jOuyYx-YZkG-ypq-80" value="" style="endArrow=none;html=1;rounded=0;entryX=0;entryY=0.5;entryDx=0;entryDy=0;" edge="1" parent="1" source="jL4y7jOuyYx-YZkG-ypq-77" target="jL4y7jOuyYx-YZkG-ypq-74">
          <mxGeometry width="50" height="50" relative="1" as="geometry">
            <mxPoint x="280.13" y="640" as="sourcePoint" />
            <mxPoint x="470.48322867153377" y="603.742242157803" as="targetPoint" />
          </mxGeometry>
        </mxCell>
        <mxCell id="jL4y7jOuyYx-YZkG-ypq-83" value="" style="group;rotation=15;" vertex="1" connectable="0" parent="1">
          <mxGeometry x="267.87" y="515.54" width="221.96" height="77" as="geometry" />
        </mxCell>
        <mxCell id="jL4y7jOuyYx-YZkG-ypq-84" value="" style="curved=1;endArrow=0;html=1;rounded=0;" edge="1" parent="jL4y7jOuyYx-YZkG-ypq-83">
          <mxGeometry width="50" height="50" relative="1" as="geometry">
            <mxPoint x="129.30134281200634" y="66.62122947689959" as="sourcePoint" />
            <mxPoint x="83.27883096366509" y="72.50133638793433" as="targetPoint" />
            <Array as="points">
              <mxPoint x="122.7266982622433" y="113.66208476517755" />
              <mxPoint x="92.04502369668248" y="27.420516736667942" />
            </Array>
          </mxGeometry>
        </mxCell>
        <mxCell id="jL4y7jOuyYx-YZkG-ypq-85" value="" style="endArrow=none;html=1;rounded=0;" edge="1" parent="jL4y7jOuyYx-YZkG-ypq-83">
          <mxGeometry width="50" height="50" relative="1" as="geometry">
            <mxPoint x="-4.383096366508689" y="13.700267277586866" as="sourcePoint" />
            <mxPoint x="234.49565560821486" y="133.2624411352934" as="targetPoint" />
          </mxGeometry>
        </mxCell>
        <mxCell id="jL4y7jOuyYx-YZkG-ypq-90" value="" style="group" vertex="1" connectable="0" parent="jL4y7jOuyYx-YZkG-ypq-83">
          <mxGeometry x="91.02225908372827" y="25.46048109965636" width="21.915481832543446" height="9.800178185057911" as="geometry" />
        </mxCell>
        <mxCell id="jL4y7jOuyYx-YZkG-ypq-91" value="" style="endArrow=none;html=1;rounded=0;fontSize=24;" edge="1" parent="jL4y7jOuyYx-YZkG-ypq-90">
          <mxGeometry width="50" height="50" relative="1" as="geometry">
            <mxPoint x="10.957740916271723" y="9.800178185057911" as="sourcePoint" />
            <mxPoint as="targetPoint" />
          </mxGeometry>
        </mxCell>
        <mxCell id="jL4y7jOuyYx-YZkG-ypq-92" value="" style="endArrow=none;html=1;rounded=0;fontSize=24;" edge="1" parent="jL4y7jOuyYx-YZkG-ypq-90">
          <mxGeometry width="50" height="50" relative="1" as="geometry">
            <mxPoint x="10.957740916271723" y="9.800178185057911" as="sourcePoint" />
            <mxPoint x="21.915481832543446" as="targetPoint" />
          </mxGeometry>
        </mxCell>
        <mxCell id="jL4y7jOuyYx-YZkG-ypq-86" value="" style="group;rotation=0;" vertex="1" connectable="0" parent="1">
          <mxGeometry x="271" y="548" width="198" height="98" as="geometry" />
        </mxCell>
        <mxCell id="jL4y7jOuyYx-YZkG-ypq-87" value="" style="curved=1;endArrow=0;html=1;rounded=0;" edge="1" parent="jL4y7jOuyYx-YZkG-ypq-86">
          <mxGeometry width="50" height="50" relative="1" as="geometry">
            <mxPoint x="122.18601895734595" y="64.52844597174494" as="sourcePoint" />
            <mxPoint x="85.0414691943128" y="80.41237113402062" as="targetPoint" />
            <Array as="points">
              <mxPoint x="130.0059241706161" y="112.18022145857198" />
              <mxPoint x="81.13151658767772" y="34.74608629247805" />
            </Array>
          </mxGeometry>
        </mxCell>
        <mxCell id="jL4y7jOuyYx-YZkG-ypq-88" value="" style="endArrow=none;html=1;rounded=0;" edge="1" parent="jL4y7jOuyYx-YZkG-ypq-86">
          <mxGeometry width="50" height="50" relative="1" as="geometry">
            <mxPoint x="-5.864928909952606" y="43.68079419625812" as="sourcePoint" />
            <mxPoint x="229.7097156398104" y="105.23100420007637" as="targetPoint" />
          </mxGeometry>
        </mxCell>
        <mxCell id="jL4y7jOuyYx-YZkG-ypq-94" value="" style="group" vertex="1" connectable="0" parent="jL4y7jOuyYx-YZkG-ypq-86">
          <mxGeometry x="148" y="73" width="26" height="12" as="geometry" />
        </mxCell>
        <mxCell id="jL4y7jOuyYx-YZkG-ypq-95" value="" style="endArrow=none;html=1;rounded=0;fontSize=24;" edge="1" parent="jL4y7jOuyYx-YZkG-ypq-94">
          <mxGeometry width="50" height="50" relative="1" as="geometry">
            <mxPoint y="12" as="sourcePoint" />
            <mxPoint x="13" as="targetPoint" />
          </mxGeometry>
        </mxCell>
        <mxCell id="jL4y7jOuyYx-YZkG-ypq-96" value="" style="endArrow=none;html=1;rounded=0;fontSize=24;" edge="1" parent="jL4y7jOuyYx-YZkG-ypq-94">
          <mxGeometry width="50" height="50" relative="1" as="geometry">
            <mxPoint x="26" y="12" as="sourcePoint" />
            <mxPoint x="13" as="targetPoint" />
          </mxGeometry>
        </mxCell>
        <mxCell id="jL4y7jOuyYx-YZkG-ypq-89" value="" style="curved=1;endArrow=0;html=1;rounded=0;" edge="1" parent="1">
          <mxGeometry width="50" height="50" relative="1" as="geometry">
            <mxPoint x="400" y="554" as="sourcePoint" />
            <mxPoint x="400" y="534" as="targetPoint" />
            <Array as="points">
              <mxPoint x="370" y="544" />
              <mxPoint x="400" y="534" />
            </Array>
          </mxGeometry>
        </mxCell>
        <mxCell id="jL4y7jOuyYx-YZkG-ypq-93" value="" style="curved=1;endArrow=0;html=1;rounded=0;" edge="1" parent="1">
          <mxGeometry width="50" height="50" relative="1" as="geometry">
            <mxPoint x="458" y="660" as="sourcePoint" />
            <mxPoint x="468" y="630" as="targetPoint" />
            <Array as="points">
              <mxPoint x="430" y="630" />
            </Array>
          </mxGeometry>
        </mxCell>
        <mxCell id="jL4y7jOuyYx-YZkG-ypq-45" value="" style="shape=table;startSize=0;container=1;collapsible=0;childLayout=tableLayout;fontFamily=Helvetica;fontSize=14;fontColor=default;fillColor=none;gradientColor=none;html=1;align=left;swimlaneFillColor=none;rounded=0;" vertex="1" parent="1">
          <mxGeometry x="80" y="140" width="890" height="250" as="geometry" />
        </mxCell>
        <mxCell id="jL4y7jOuyYx-YZkG-ypq-46" value="" style="shape=tableRow;horizontal=0;startSize=0;swimlaneHead=0;swimlaneBody=0;top=0;left=0;bottom=0;right=0;collapsible=0;dropTarget=0;fillColor=none;points=[[0,0.5],[1,0.5]];portConstraint=eastwest;fontFamily=Helvetica;fontSize=16;fontColor=default;html=1;" vertex="1" parent="jL4y7jOuyYx-YZkG-ypq-45">
          <mxGeometry width="890" height="50" as="geometry" />
        </mxCell>
        <mxCell id="jL4y7jOuyYx-YZkG-ypq-47" value="Cause" style="shape=partialRectangle;html=1;whiteSpace=wrap;connectable=0;overflow=hidden;fillColor=none;top=0;left=0;bottom=0;right=0;pointerEvents=1;fontFamily=Helvetica;fontSize=14;fontColor=default;fontStyle=1" vertex="1" parent="jL4y7jOuyYx-YZkG-ypq-46">
          <mxGeometry width="445" height="50" as="geometry">
            <mxRectangle width="445" height="50" as="alternateBounds" />
          </mxGeometry>
        </mxCell>
        <mxCell id="jL4y7jOuyYx-YZkG-ypq-48" value="Effect" style="shape=partialRectangle;html=1;whiteSpace=wrap;connectable=0;overflow=hidden;fillColor=none;top=0;left=0;bottom=0;right=0;pointerEvents=1;fontFamily=Helvetica;fontSize=14;fontColor=default;fontStyle=1" vertex="1" parent="jL4y7jOuyYx-YZkG-ypq-46">
          <mxGeometry x="445" width="445" height="50" as="geometry">
            <mxRectangle width="445" height="50" as="alternateBounds" />
          </mxGeometry>
        </mxCell>
        <mxCell id="jL4y7jOuyYx-YZkG-ypq-49" value="" style="shape=tableRow;horizontal=0;startSize=0;swimlaneHead=0;swimlaneBody=0;top=0;left=0;bottom=0;right=0;collapsible=0;dropTarget=0;fillColor=none;points=[[0,0.5],[1,0.5]];portConstraint=eastwest;fontFamily=Helvetica;fontSize=12;fontColor=default;html=1;" vertex="1" parent="jL4y7jOuyYx-YZkG-ypq-45">
          <mxGeometry y="50" width="890" height="50" as="geometry" />
        </mxCell>
        <mxCell id="jL4y7jOuyYx-YZkG-ypq-50" value="&lt;span style=&quot;font-family: &amp;#34;arial&amp;#34; ; font-size: 16px&quot;&gt;C1: CMND/CCCD, mã bảo mật đúng, số dư đủ&lt;/span&gt;" style="shape=partialRectangle;html=1;whiteSpace=wrap;connectable=0;overflow=hidden;fillColor=none;top=0;left=0;bottom=0;right=0;pointerEvents=1;fontFamily=Helvetica;fontSize=16;fontColor=default;align=left;" vertex="1" parent="jL4y7jOuyYx-YZkG-ypq-49">
          <mxGeometry width="445" height="50" as="geometry">
            <mxRectangle width="445" height="50" as="alternateBounds" />
          </mxGeometry>
        </mxCell>
        <mxCell id="jL4y7jOuyYx-YZkG-ypq-51" value="&lt;span style=&quot;font-family: arial; font-size: 16px;&quot;&gt;E1: Thanh toán thành công và hiển thị thông báo.&lt;/span&gt;" style="shape=partialRectangle;html=1;whiteSpace=wrap;connectable=0;overflow=hidden;fillColor=none;top=0;left=0;bottom=0;right=0;pointerEvents=1;fontFamily=Helvetica;fontSize=16;fontColor=default;align=left;" vertex="1" parent="jL4y7jOuyYx-YZkG-ypq-49">
          <mxGeometry x="445" width="445" height="50" as="geometry">
            <mxRectangle width="445" height="50" as="alternateBounds" />
          </mxGeometry>
        </mxCell>
        <mxCell id="jL4y7jOuyYx-YZkG-ypq-52" value="" style="shape=tableRow;horizontal=0;startSize=0;swimlaneHead=0;swimlaneBody=0;top=0;left=0;bottom=0;right=0;collapsible=0;dropTarget=0;fillColor=none;points=[[0,0.5],[1,0.5]];portConstraint=eastwest;fontFamily=Helvetica;fontSize=12;fontColor=default;html=1;" vertex="1" parent="jL4y7jOuyYx-YZkG-ypq-45">
          <mxGeometry y="100" width="890" height="50" as="geometry" />
        </mxCell>
        <mxCell id="jL4y7jOuyYx-YZkG-ypq-53" value="C2: CMND/CCCD sai" style="shape=partialRectangle;html=1;whiteSpace=wrap;connectable=0;overflow=hidden;fillColor=none;top=0;left=0;bottom=0;right=0;pointerEvents=1;fontFamily=Helvetica;fontSize=16;fontColor=default;align=left;" vertex="1" parent="jL4y7jOuyYx-YZkG-ypq-52">
          <mxGeometry width="445" height="50" as="geometry">
            <mxRectangle width="445" height="50" as="alternateBounds" />
          </mxGeometry>
        </mxCell>
        <mxCell id="jL4y7jOuyYx-YZkG-ypq-54" value="E2: Hiển thị thông báo lỗi: &quot;CMND/CCCD hoặc mã bảo mật không đúng&quot;." style="shape=partialRectangle;html=1;whiteSpace=wrap;connectable=0;overflow=hidden;fillColor=none;top=0;left=0;bottom=0;right=0;pointerEvents=1;fontFamily=Helvetica;fontSize=16;fontColor=default;align=left;" vertex="1" parent="jL4y7jOuyYx-YZkG-ypq-52">
          <mxGeometry x="445" width="445" height="50" as="geometry">
            <mxRectangle width="445" height="50" as="alternateBounds" />
          </mxGeometry>
        </mxCell>
        <mxCell id="jL4y7jOuyYx-YZkG-ypq-55" value="" style="shape=tableRow;horizontal=0;startSize=0;swimlaneHead=0;swimlaneBody=0;top=0;left=0;bottom=0;right=0;collapsible=0;dropTarget=0;fillColor=none;points=[[0,0.5],[1,0.5]];portConstraint=eastwest;fontFamily=Helvetica;fontSize=12;fontColor=default;html=1;" vertex="1" parent="jL4y7jOuyYx-YZkG-ypq-45">
          <mxGeometry y="150" width="890" height="50" as="geometry" />
        </mxCell>
        <mxCell id="jL4y7jOuyYx-YZkG-ypq-56" value="C3: Mã bảo mật sai" style="shape=partialRectangle;html=1;whiteSpace=wrap;connectable=0;overflow=hidden;fillColor=none;top=0;left=0;bottom=0;right=0;pointerEvents=1;fontFamily=Helvetica;fontSize=16;fontColor=default;align=left;" vertex="1" parent="jL4y7jOuyYx-YZkG-ypq-55">
          <mxGeometry width="445" height="50" as="geometry">
            <mxRectangle width="445" height="50" as="alternateBounds" />
          </mxGeometry>
        </mxCell>
        <mxCell id="jL4y7jOuyYx-YZkG-ypq-57" value="&lt;span style=&quot;font-size: 16px;&quot;&gt;E2: Hiển thị thông báo lỗi: &quot;CMND/CCCD hoặc mã bảo mật không đúng&quot;.&lt;/span&gt;" style="shape=partialRectangle;html=1;whiteSpace=wrap;connectable=0;overflow=hidden;fillColor=none;top=0;left=0;bottom=0;right=0;pointerEvents=1;fontFamily=Helvetica;fontSize=16;fontColor=default;align=left;" vertex="1" parent="jL4y7jOuyYx-YZkG-ypq-55">
          <mxGeometry x="445" width="445" height="50" as="geometry">
            <mxRectangle width="445" height="50" as="alternateBounds" />
          </mxGeometry>
        </mxCell>
        <mxCell id="jL4y7jOuyYx-YZkG-ypq-70" style="shape=tableRow;horizontal=0;startSize=0;swimlaneHead=0;swimlaneBody=0;top=0;left=0;bottom=0;right=0;collapsible=0;dropTarget=0;fillColor=none;points=[[0,0.5],[1,0.5]];portConstraint=eastwest;fontFamily=Helvetica;fontSize=12;fontColor=default;html=1;" vertex="1" parent="jL4y7jOuyYx-YZkG-ypq-45">
          <mxGeometry y="200" width="890" height="50" as="geometry" />
        </mxCell>
        <mxCell id="jL4y7jOuyYx-YZkG-ypq-71" value="C4: CMND/CCCD và mã bảo mật đúng và số dư không đủ" style="shape=partialRectangle;html=1;whiteSpace=wrap;connectable=0;overflow=hidden;fillColor=none;top=0;left=0;bottom=0;right=0;pointerEvents=1;fontFamily=Helvetica;fontSize=16;fontColor=default;align=left;" vertex="1" parent="jL4y7jOuyYx-YZkG-ypq-70">
          <mxGeometry width="445" height="50" as="geometry">
            <mxRectangle width="445" height="50" as="alternateBounds" />
          </mxGeometry>
        </mxCell>
        <mxCell id="jL4y7jOuyYx-YZkG-ypq-72" value="E3:&amp;nbsp;Số dư của tài khoản không đủ vui lòng chọn phương thức thanh toán khác." style="shape=partialRectangle;html=1;whiteSpace=wrap;connectable=0;overflow=hidden;fillColor=none;top=0;left=0;bottom=0;right=0;pointerEvents=1;fontFamily=Helvetica;fontSize=16;fontColor=default;align=left;" vertex="1" parent="jL4y7jOuyYx-YZkG-ypq-70">
          <mxGeometry x="445" width="445" height="50" as="geometry">
            <mxRectangle width="445" height="50" as="alternateBounds" />
          </mxGeometry>
        </mxCell>
        <mxCell id="jL4y7jOuyYx-YZkG-ypq-97" value="" style="shape=table;startSize=0;container=1;collapsible=0;childLayout=tableLayout;rounded=0;fontFamily=Helvetica;fontSize=16;fontColor=default;strokeColor=default;fillColor=none;gradientColor=none;html=1;" vertex="1" parent="1">
          <mxGeometry x="129.83" y="730" width="500.17" height="320" as="geometry" />
        </mxCell>
        <mxCell id="jL4y7jOuyYx-YZkG-ypq-98" value="" style="shape=tableRow;horizontal=0;startSize=0;swimlaneHead=0;swimlaneBody=0;top=0;left=0;bottom=0;right=0;collapsible=0;dropTarget=0;fillColor=none;points=[[0,0.5],[1,0.5]];portConstraint=eastwest;rounded=0;fontFamily=Helvetica;fontSize=16;fontColor=default;strokeColor=default;html=1;" vertex="1" parent="jL4y7jOuyYx-YZkG-ypq-97">
          <mxGeometry width="500.17" height="40" as="geometry" />
        </mxCell>
        <mxCell id="jL4y7jOuyYx-YZkG-ypq-99" value="" style="shape=partialRectangle;html=1;whiteSpace=wrap;connectable=0;overflow=hidden;fillColor=none;top=0;left=0;bottom=0;right=0;pointerEvents=1;rounded=0;fontFamily=Helvetica;fontSize=16;fontColor=default;startSize=0;strokeColor=default;" vertex="1" parent="jL4y7jOuyYx-YZkG-ypq-98">
          <mxGeometry width="100" height="40" as="geometry">
            <mxRectangle width="100" height="40" as="alternateBounds" />
          </mxGeometry>
        </mxCell>
        <mxCell id="jL4y7jOuyYx-YZkG-ypq-100" value="TC1" style="shape=partialRectangle;html=1;whiteSpace=wrap;connectable=0;overflow=hidden;fillColor=none;top=0;left=0;bottom=0;right=0;pointerEvents=1;rounded=0;fontFamily=Helvetica;fontSize=16;fontColor=default;startSize=0;strokeColor=default;" vertex="1" parent="jL4y7jOuyYx-YZkG-ypq-98">
          <mxGeometry x="100" width="100" height="40" as="geometry">
            <mxRectangle width="100" height="40" as="alternateBounds" />
          </mxGeometry>
        </mxCell>
        <mxCell id="jL4y7jOuyYx-YZkG-ypq-101" value="TC2" style="shape=partialRectangle;html=1;whiteSpace=wrap;connectable=0;overflow=hidden;fillColor=none;top=0;left=0;bottom=0;right=0;pointerEvents=1;rounded=0;fontFamily=Helvetica;fontSize=16;fontColor=default;startSize=0;strokeColor=default;" vertex="1" parent="jL4y7jOuyYx-YZkG-ypq-98">
          <mxGeometry x="200" width="100" height="40" as="geometry">
            <mxRectangle width="100" height="40" as="alternateBounds" />
          </mxGeometry>
        </mxCell>
        <mxCell id="jL4y7jOuyYx-YZkG-ypq-102" value="TC3" style="shape=partialRectangle;html=1;whiteSpace=wrap;connectable=0;overflow=hidden;fillColor=none;top=0;left=0;bottom=0;right=0;pointerEvents=1;rounded=0;fontFamily=Helvetica;fontSize=16;fontColor=default;startSize=0;strokeColor=default;" vertex="1" parent="jL4y7jOuyYx-YZkG-ypq-98">
          <mxGeometry x="300" width="100" height="40" as="geometry">
            <mxRectangle width="100" height="40" as="alternateBounds" />
          </mxGeometry>
        </mxCell>
        <mxCell id="jL4y7jOuyYx-YZkG-ypq-103" value="TC4" style="shape=partialRectangle;html=1;whiteSpace=wrap;connectable=0;overflow=hidden;fillColor=none;top=0;left=0;bottom=0;right=0;pointerEvents=1;rounded=0;fontFamily=Helvetica;fontSize=16;fontColor=default;startSize=0;strokeColor=default;" vertex="1" parent="jL4y7jOuyYx-YZkG-ypq-98">
          <mxGeometry x="400" width="100" height="40" as="geometry">
            <mxRectangle width="100" height="40" as="alternateBounds" />
          </mxGeometry>
        </mxCell>
        <mxCell id="jL4y7jOuyYx-YZkG-ypq-105" value="" style="shape=tableRow;horizontal=0;startSize=0;swimlaneHead=0;swimlaneBody=0;top=0;left=0;bottom=0;right=0;collapsible=0;dropTarget=0;fillColor=none;points=[[0,0.5],[1,0.5]];portConstraint=eastwest;rounded=0;fontFamily=Helvetica;fontSize=16;fontColor=default;strokeColor=default;html=1;" vertex="1" parent="jL4y7jOuyYx-YZkG-ypq-97">
          <mxGeometry y="40" width="500.17" height="40" as="geometry" />
        </mxCell>
        <mxCell id="jL4y7jOuyYx-YZkG-ypq-106" value="C1" style="shape=partialRectangle;html=1;whiteSpace=wrap;connectable=0;overflow=hidden;fillColor=none;top=0;left=0;bottom=0;right=0;pointerEvents=1;rounded=0;fontFamily=Helvetica;fontSize=16;fontColor=default;startSize=0;strokeColor=default;" vertex="1" parent="jL4y7jOuyYx-YZkG-ypq-105">
          <mxGeometry width="100" height="40" as="geometry">
            <mxRectangle width="100" height="40" as="alternateBounds" />
          </mxGeometry>
        </mxCell>
        <mxCell id="jL4y7jOuyYx-YZkG-ypq-107" value="Y" style="shape=partialRectangle;html=1;whiteSpace=wrap;connectable=0;overflow=hidden;fillColor=none;top=0;left=0;bottom=0;right=0;pointerEvents=1;rounded=0;fontFamily=Helvetica;fontSize=16;fontColor=default;startSize=0;strokeColor=default;" vertex="1" parent="jL4y7jOuyYx-YZkG-ypq-105">
          <mxGeometry x="100" width="100" height="40" as="geometry">
            <mxRectangle width="100" height="40" as="alternateBounds" />
          </mxGeometry>
        </mxCell>
        <mxCell id="jL4y7jOuyYx-YZkG-ypq-108" value="" style="shape=partialRectangle;html=1;whiteSpace=wrap;connectable=0;overflow=hidden;fillColor=none;top=0;left=0;bottom=0;right=0;pointerEvents=1;rounded=0;fontFamily=Helvetica;fontSize=16;fontColor=default;startSize=0;strokeColor=default;" vertex="1" parent="jL4y7jOuyYx-YZkG-ypq-105">
          <mxGeometry x="200" width="100" height="40" as="geometry">
            <mxRectangle width="100" height="40" as="alternateBounds" />
          </mxGeometry>
        </mxCell>
        <mxCell id="jL4y7jOuyYx-YZkG-ypq-109" value="" style="shape=partialRectangle;html=1;whiteSpace=wrap;connectable=0;overflow=hidden;fillColor=none;top=0;left=0;bottom=0;right=0;pointerEvents=1;rounded=0;fontFamily=Helvetica;fontSize=16;fontColor=default;startSize=0;strokeColor=default;" vertex="1" parent="jL4y7jOuyYx-YZkG-ypq-105">
          <mxGeometry x="300" width="100" height="40" as="geometry">
            <mxRectangle width="100" height="40" as="alternateBounds" />
          </mxGeometry>
        </mxCell>
        <mxCell id="jL4y7jOuyYx-YZkG-ypq-110" value="" style="shape=partialRectangle;html=1;whiteSpace=wrap;connectable=0;overflow=hidden;fillColor=none;top=0;left=0;bottom=0;right=0;pointerEvents=1;rounded=0;fontFamily=Helvetica;fontSize=16;fontColor=default;startSize=0;strokeColor=default;" vertex="1" parent="jL4y7jOuyYx-YZkG-ypq-105">
          <mxGeometry x="400" width="100" height="40" as="geometry">
            <mxRectangle width="100" height="40" as="alternateBounds" />
          </mxGeometry>
        </mxCell>
        <mxCell id="jL4y7jOuyYx-YZkG-ypq-112" value="" style="shape=tableRow;horizontal=0;startSize=0;swimlaneHead=0;swimlaneBody=0;top=0;left=0;bottom=0;right=0;collapsible=0;dropTarget=0;fillColor=none;points=[[0,0.5],[1,0.5]];portConstraint=eastwest;rounded=0;fontFamily=Helvetica;fontSize=16;fontColor=default;strokeColor=default;html=1;" vertex="1" parent="jL4y7jOuyYx-YZkG-ypq-97">
          <mxGeometry y="80" width="500.17" height="40" as="geometry" />
        </mxCell>
        <mxCell id="jL4y7jOuyYx-YZkG-ypq-113" value="C2" style="shape=partialRectangle;html=1;whiteSpace=wrap;connectable=0;overflow=hidden;fillColor=none;top=0;left=0;bottom=0;right=0;pointerEvents=1;rounded=0;fontFamily=Helvetica;fontSize=16;fontColor=default;startSize=0;strokeColor=default;" vertex="1" parent="jL4y7jOuyYx-YZkG-ypq-112">
          <mxGeometry width="100" height="40" as="geometry">
            <mxRectangle width="100" height="40" as="alternateBounds" />
          </mxGeometry>
        </mxCell>
        <mxCell id="jL4y7jOuyYx-YZkG-ypq-114" value="" style="shape=partialRectangle;html=1;whiteSpace=wrap;connectable=0;overflow=hidden;fillColor=none;top=0;left=0;bottom=0;right=0;pointerEvents=1;rounded=0;fontFamily=Helvetica;fontSize=16;fontColor=default;startSize=0;strokeColor=default;" vertex="1" parent="jL4y7jOuyYx-YZkG-ypq-112">
          <mxGeometry x="100" width="100" height="40" as="geometry">
            <mxRectangle width="100" height="40" as="alternateBounds" />
          </mxGeometry>
        </mxCell>
        <mxCell id="jL4y7jOuyYx-YZkG-ypq-115" value="Y" style="shape=partialRectangle;html=1;whiteSpace=wrap;connectable=0;overflow=hidden;fillColor=none;top=0;left=0;bottom=0;right=0;pointerEvents=1;rounded=0;fontFamily=Helvetica;fontSize=16;fontColor=default;startSize=0;strokeColor=default;" vertex="1" parent="jL4y7jOuyYx-YZkG-ypq-112">
          <mxGeometry x="200" width="100" height="40" as="geometry">
            <mxRectangle width="100" height="40" as="alternateBounds" />
          </mxGeometry>
        </mxCell>
        <mxCell id="jL4y7jOuyYx-YZkG-ypq-116" value="N" style="shape=partialRectangle;html=1;whiteSpace=wrap;connectable=0;overflow=hidden;fillColor=none;top=0;left=0;bottom=0;right=0;pointerEvents=1;rounded=0;fontFamily=Helvetica;fontSize=16;fontColor=default;startSize=0;strokeColor=default;" vertex="1" parent="jL4y7jOuyYx-YZkG-ypq-112">
          <mxGeometry x="300" width="100" height="40" as="geometry">
            <mxRectangle width="100" height="40" as="alternateBounds" />
          </mxGeometry>
        </mxCell>
        <mxCell id="jL4y7jOuyYx-YZkG-ypq-117" value="N" style="shape=partialRectangle;html=1;whiteSpace=wrap;connectable=0;overflow=hidden;fillColor=none;top=0;left=0;bottom=0;right=0;pointerEvents=1;rounded=0;fontFamily=Helvetica;fontSize=16;fontColor=default;startSize=0;strokeColor=default;" vertex="1" parent="jL4y7jOuyYx-YZkG-ypq-112">
          <mxGeometry x="400" width="100" height="40" as="geometry">
            <mxRectangle width="100" height="40" as="alternateBounds" />
          </mxGeometry>
        </mxCell>
        <mxCell id="jL4y7jOuyYx-YZkG-ypq-119" value="" style="shape=tableRow;horizontal=0;startSize=0;swimlaneHead=0;swimlaneBody=0;top=0;left=0;bottom=0;right=0;collapsible=0;dropTarget=0;fillColor=none;points=[[0,0.5],[1,0.5]];portConstraint=eastwest;rounded=0;fontFamily=Helvetica;fontSize=16;fontColor=default;strokeColor=default;html=1;" vertex="1" parent="jL4y7jOuyYx-YZkG-ypq-97">
          <mxGeometry y="120" width="500.17" height="40" as="geometry" />
        </mxCell>
        <mxCell id="jL4y7jOuyYx-YZkG-ypq-120" value="C3" style="shape=partialRectangle;html=1;whiteSpace=wrap;connectable=0;overflow=hidden;fillColor=none;top=0;left=0;bottom=0;right=0;pointerEvents=1;rounded=0;fontFamily=Helvetica;fontSize=16;fontColor=default;startSize=0;strokeColor=default;" vertex="1" parent="jL4y7jOuyYx-YZkG-ypq-119">
          <mxGeometry width="100" height="40" as="geometry">
            <mxRectangle width="100" height="40" as="alternateBounds" />
          </mxGeometry>
        </mxCell>
        <mxCell id="jL4y7jOuyYx-YZkG-ypq-121" value="" style="shape=partialRectangle;html=1;whiteSpace=wrap;connectable=0;overflow=hidden;fillColor=none;top=0;left=0;bottom=0;right=0;pointerEvents=1;rounded=0;fontFamily=Helvetica;fontSize=16;fontColor=default;startSize=0;strokeColor=default;" vertex="1" parent="jL4y7jOuyYx-YZkG-ypq-119">
          <mxGeometry x="100" width="100" height="40" as="geometry">
            <mxRectangle width="100" height="40" as="alternateBounds" />
          </mxGeometry>
        </mxCell>
        <mxCell id="jL4y7jOuyYx-YZkG-ypq-122" value="N" style="shape=partialRectangle;html=1;whiteSpace=wrap;connectable=0;overflow=hidden;fillColor=none;top=0;left=0;bottom=0;right=0;pointerEvents=1;rounded=0;fontFamily=Helvetica;fontSize=16;fontColor=default;startSize=0;strokeColor=default;" vertex="1" parent="jL4y7jOuyYx-YZkG-ypq-119">
          <mxGeometry x="200" width="100" height="40" as="geometry">
            <mxRectangle width="100" height="40" as="alternateBounds" />
          </mxGeometry>
        </mxCell>
        <mxCell id="jL4y7jOuyYx-YZkG-ypq-123" value="Y" style="shape=partialRectangle;html=1;whiteSpace=wrap;connectable=0;overflow=hidden;fillColor=none;top=0;left=0;bottom=0;right=0;pointerEvents=1;rounded=0;fontFamily=Helvetica;fontSize=16;fontColor=default;startSize=0;strokeColor=default;" vertex="1" parent="jL4y7jOuyYx-YZkG-ypq-119">
          <mxGeometry x="300" width="100" height="40" as="geometry">
            <mxRectangle width="100" height="40" as="alternateBounds" />
          </mxGeometry>
        </mxCell>
        <mxCell id="jL4y7jOuyYx-YZkG-ypq-124" value="N" style="shape=partialRectangle;html=1;whiteSpace=wrap;connectable=0;overflow=hidden;fillColor=none;top=0;left=0;bottom=0;right=0;pointerEvents=1;rounded=0;fontFamily=Helvetica;fontSize=16;fontColor=default;startSize=0;strokeColor=default;" vertex="1" parent="jL4y7jOuyYx-YZkG-ypq-119">
          <mxGeometry x="400" width="100" height="40" as="geometry">
            <mxRectangle width="100" height="40" as="alternateBounds" />
          </mxGeometry>
        </mxCell>
        <mxCell id="jL4y7jOuyYx-YZkG-ypq-126" value="" style="shape=tableRow;horizontal=0;startSize=0;swimlaneHead=0;swimlaneBody=0;top=0;left=0;bottom=0;right=0;collapsible=0;dropTarget=0;fillColor=none;points=[[0,0.5],[1,0.5]];portConstraint=eastwest;rounded=0;fontFamily=Helvetica;fontSize=16;fontColor=default;strokeColor=default;html=1;" vertex="1" parent="jL4y7jOuyYx-YZkG-ypq-97">
          <mxGeometry y="160" width="500.17" height="40" as="geometry" />
        </mxCell>
        <mxCell id="jL4y7jOuyYx-YZkG-ypq-127" value="C4" style="shape=partialRectangle;html=1;whiteSpace=wrap;connectable=0;overflow=hidden;fillColor=none;top=0;left=0;bottom=0;right=0;pointerEvents=1;rounded=0;fontFamily=Helvetica;fontSize=16;fontColor=default;startSize=0;strokeColor=default;" vertex="1" parent="jL4y7jOuyYx-YZkG-ypq-126">
          <mxGeometry width="100" height="40" as="geometry">
            <mxRectangle width="100" height="40" as="alternateBounds" />
          </mxGeometry>
        </mxCell>
        <mxCell id="jL4y7jOuyYx-YZkG-ypq-128" value="" style="shape=partialRectangle;html=1;whiteSpace=wrap;connectable=0;overflow=hidden;fillColor=none;top=0;left=0;bottom=0;right=0;pointerEvents=1;rounded=0;fontFamily=Helvetica;fontSize=16;fontColor=default;startSize=0;strokeColor=default;" vertex="1" parent="jL4y7jOuyYx-YZkG-ypq-126">
          <mxGeometry x="100" width="100" height="40" as="geometry">
            <mxRectangle width="100" height="40" as="alternateBounds" />
          </mxGeometry>
        </mxCell>
        <mxCell id="jL4y7jOuyYx-YZkG-ypq-129" value="" style="shape=partialRectangle;html=1;whiteSpace=wrap;connectable=0;overflow=hidden;fillColor=none;top=0;left=0;bottom=0;right=0;pointerEvents=1;rounded=0;fontFamily=Helvetica;fontSize=16;fontColor=default;startSize=0;strokeColor=default;" vertex="1" parent="jL4y7jOuyYx-YZkG-ypq-126">
          <mxGeometry x="200" width="100" height="40" as="geometry">
            <mxRectangle width="100" height="40" as="alternateBounds" />
          </mxGeometry>
        </mxCell>
        <mxCell id="jL4y7jOuyYx-YZkG-ypq-130" value="" style="shape=partialRectangle;html=1;whiteSpace=wrap;connectable=0;overflow=hidden;fillColor=none;top=0;left=0;bottom=0;right=0;pointerEvents=1;rounded=0;fontFamily=Helvetica;fontSize=16;fontColor=default;startSize=0;strokeColor=default;" vertex="1" parent="jL4y7jOuyYx-YZkG-ypq-126">
          <mxGeometry x="300" width="100" height="40" as="geometry">
            <mxRectangle width="100" height="40" as="alternateBounds" />
          </mxGeometry>
        </mxCell>
        <mxCell id="jL4y7jOuyYx-YZkG-ypq-131" value="Y" style="shape=partialRectangle;html=1;whiteSpace=wrap;connectable=0;overflow=hidden;fillColor=none;top=0;left=0;bottom=0;right=0;pointerEvents=1;rounded=0;fontFamily=Helvetica;fontSize=16;fontColor=default;startSize=0;strokeColor=default;" vertex="1" parent="jL4y7jOuyYx-YZkG-ypq-126">
          <mxGeometry x="400" width="100" height="40" as="geometry">
            <mxRectangle width="100" height="40" as="alternateBounds" />
          </mxGeometry>
        </mxCell>
        <mxCell id="jL4y7jOuyYx-YZkG-ypq-133" value="" style="shape=tableRow;horizontal=0;startSize=0;swimlaneHead=0;swimlaneBody=0;top=0;left=0;bottom=0;right=0;collapsible=0;dropTarget=0;fillColor=none;points=[[0,0.5],[1,0.5]];portConstraint=eastwest;rounded=0;fontFamily=Helvetica;fontSize=16;fontColor=default;strokeColor=default;html=1;" vertex="1" parent="jL4y7jOuyYx-YZkG-ypq-97">
          <mxGeometry y="200" width="500.17" height="40" as="geometry" />
        </mxCell>
        <mxCell id="jL4y7jOuyYx-YZkG-ypq-134" value="E1" style="shape=partialRectangle;html=1;whiteSpace=wrap;connectable=0;overflow=hidden;fillColor=none;top=0;left=0;bottom=0;right=0;pointerEvents=1;rounded=0;fontFamily=Helvetica;fontSize=16;fontColor=default;startSize=0;strokeColor=default;" vertex="1" parent="jL4y7jOuyYx-YZkG-ypq-133">
          <mxGeometry width="100" height="40" as="geometry">
            <mxRectangle width="100" height="40" as="alternateBounds" />
          </mxGeometry>
        </mxCell>
        <mxCell id="jL4y7jOuyYx-YZkG-ypq-135" value="1" style="shape=partialRectangle;html=1;whiteSpace=wrap;connectable=0;overflow=hidden;fillColor=none;top=0;left=0;bottom=0;right=0;pointerEvents=1;rounded=0;fontFamily=Helvetica;fontSize=16;fontColor=default;startSize=0;strokeColor=default;" vertex="1" parent="jL4y7jOuyYx-YZkG-ypq-133">
          <mxGeometry x="100" width="100" height="40" as="geometry">
            <mxRectangle width="100" height="40" as="alternateBounds" />
          </mxGeometry>
        </mxCell>
        <mxCell id="jL4y7jOuyYx-YZkG-ypq-136" value="" style="shape=partialRectangle;html=1;whiteSpace=wrap;connectable=0;overflow=hidden;fillColor=none;top=0;left=0;bottom=0;right=0;pointerEvents=1;rounded=0;fontFamily=Helvetica;fontSize=16;fontColor=default;startSize=0;strokeColor=default;" vertex="1" parent="jL4y7jOuyYx-YZkG-ypq-133">
          <mxGeometry x="200" width="100" height="40" as="geometry">
            <mxRectangle width="100" height="40" as="alternateBounds" />
          </mxGeometry>
        </mxCell>
        <mxCell id="jL4y7jOuyYx-YZkG-ypq-137" value="" style="shape=partialRectangle;html=1;whiteSpace=wrap;connectable=0;overflow=hidden;fillColor=none;top=0;left=0;bottom=0;right=0;pointerEvents=1;rounded=0;fontFamily=Helvetica;fontSize=16;fontColor=default;startSize=0;strokeColor=default;" vertex="1" parent="jL4y7jOuyYx-YZkG-ypq-133">
          <mxGeometry x="300" width="100" height="40" as="geometry">
            <mxRectangle width="100" height="40" as="alternateBounds" />
          </mxGeometry>
        </mxCell>
        <mxCell id="jL4y7jOuyYx-YZkG-ypq-138" value="" style="shape=partialRectangle;html=1;whiteSpace=wrap;connectable=0;overflow=hidden;fillColor=none;top=0;left=0;bottom=0;right=0;pointerEvents=1;rounded=0;fontFamily=Helvetica;fontSize=16;fontColor=default;startSize=0;strokeColor=default;" vertex="1" parent="jL4y7jOuyYx-YZkG-ypq-133">
          <mxGeometry x="400" width="100" height="40" as="geometry">
            <mxRectangle width="100" height="40" as="alternateBounds" />
          </mxGeometry>
        </mxCell>
        <mxCell id="jL4y7jOuyYx-YZkG-ypq-140" value="" style="shape=tableRow;horizontal=0;startSize=0;swimlaneHead=0;swimlaneBody=0;top=0;left=0;bottom=0;right=0;collapsible=0;dropTarget=0;fillColor=none;points=[[0,0.5],[1,0.5]];portConstraint=eastwest;rounded=0;fontFamily=Helvetica;fontSize=16;fontColor=default;strokeColor=default;html=1;" vertex="1" parent="jL4y7jOuyYx-YZkG-ypq-97">
          <mxGeometry y="240" width="500.17" height="40" as="geometry" />
        </mxCell>
        <mxCell id="jL4y7jOuyYx-YZkG-ypq-141" value="E2" style="shape=partialRectangle;html=1;whiteSpace=wrap;connectable=0;overflow=hidden;fillColor=none;top=0;left=0;bottom=0;right=0;pointerEvents=1;rounded=0;fontFamily=Helvetica;fontSize=16;fontColor=default;startSize=0;strokeColor=default;" vertex="1" parent="jL4y7jOuyYx-YZkG-ypq-140">
          <mxGeometry width="100" height="40" as="geometry">
            <mxRectangle width="100" height="40" as="alternateBounds" />
          </mxGeometry>
        </mxCell>
        <mxCell id="jL4y7jOuyYx-YZkG-ypq-142" value="" style="shape=partialRectangle;html=1;whiteSpace=wrap;connectable=0;overflow=hidden;fillColor=none;top=0;left=0;bottom=0;right=0;pointerEvents=1;rounded=0;fontFamily=Helvetica;fontSize=16;fontColor=default;startSize=0;strokeColor=default;" vertex="1" parent="jL4y7jOuyYx-YZkG-ypq-140">
          <mxGeometry x="100" width="100" height="40" as="geometry">
            <mxRectangle width="100" height="40" as="alternateBounds" />
          </mxGeometry>
        </mxCell>
        <mxCell id="jL4y7jOuyYx-YZkG-ypq-143" value="1" style="shape=partialRectangle;html=1;whiteSpace=wrap;connectable=0;overflow=hidden;fillColor=none;top=0;left=0;bottom=0;right=0;pointerEvents=1;rounded=0;fontFamily=Helvetica;fontSize=16;fontColor=default;startSize=0;strokeColor=default;" vertex="1" parent="jL4y7jOuyYx-YZkG-ypq-140">
          <mxGeometry x="200" width="100" height="40" as="geometry">
            <mxRectangle width="100" height="40" as="alternateBounds" />
          </mxGeometry>
        </mxCell>
        <mxCell id="jL4y7jOuyYx-YZkG-ypq-144" value="1" style="shape=partialRectangle;html=1;whiteSpace=wrap;connectable=0;overflow=hidden;fillColor=none;top=0;left=0;bottom=0;right=0;pointerEvents=1;rounded=0;fontFamily=Helvetica;fontSize=16;fontColor=default;startSize=0;strokeColor=default;" vertex="1" parent="jL4y7jOuyYx-YZkG-ypq-140">
          <mxGeometry x="300" width="100" height="40" as="geometry">
            <mxRectangle width="100" height="40" as="alternateBounds" />
          </mxGeometry>
        </mxCell>
        <mxCell id="jL4y7jOuyYx-YZkG-ypq-145" value="" style="shape=partialRectangle;html=1;whiteSpace=wrap;connectable=0;overflow=hidden;fillColor=none;top=0;left=0;bottom=0;right=0;pointerEvents=1;rounded=0;fontFamily=Helvetica;fontSize=16;fontColor=default;startSize=0;strokeColor=default;" vertex="1" parent="jL4y7jOuyYx-YZkG-ypq-140">
          <mxGeometry x="400" width="100" height="40" as="geometry">
            <mxRectangle width="100" height="40" as="alternateBounds" />
          </mxGeometry>
        </mxCell>
        <mxCell id="jL4y7jOuyYx-YZkG-ypq-147" value="" style="shape=tableRow;horizontal=0;startSize=0;swimlaneHead=0;swimlaneBody=0;top=0;left=0;bottom=0;right=0;collapsible=0;dropTarget=0;fillColor=none;points=[[0,0.5],[1,0.5]];portConstraint=eastwest;rounded=0;fontFamily=Helvetica;fontSize=16;fontColor=default;strokeColor=default;html=1;" vertex="1" parent="jL4y7jOuyYx-YZkG-ypq-97">
          <mxGeometry y="280" width="500.17" height="40" as="geometry" />
        </mxCell>
        <mxCell id="jL4y7jOuyYx-YZkG-ypq-148" value="E3" style="shape=partialRectangle;html=1;whiteSpace=wrap;connectable=0;overflow=hidden;fillColor=none;top=0;left=0;bottom=0;right=0;pointerEvents=1;rounded=0;fontFamily=Helvetica;fontSize=16;fontColor=default;startSize=0;strokeColor=default;" vertex="1" parent="jL4y7jOuyYx-YZkG-ypq-147">
          <mxGeometry width="100" height="40" as="geometry">
            <mxRectangle width="100" height="40" as="alternateBounds" />
          </mxGeometry>
        </mxCell>
        <mxCell id="jL4y7jOuyYx-YZkG-ypq-149" value="" style="shape=partialRectangle;html=1;whiteSpace=wrap;connectable=0;overflow=hidden;fillColor=none;top=0;left=0;bottom=0;right=0;pointerEvents=1;rounded=0;fontFamily=Helvetica;fontSize=16;fontColor=default;startSize=0;strokeColor=default;" vertex="1" parent="jL4y7jOuyYx-YZkG-ypq-147">
          <mxGeometry x="100" width="100" height="40" as="geometry">
            <mxRectangle width="100" height="40" as="alternateBounds" />
          </mxGeometry>
        </mxCell>
        <mxCell id="jL4y7jOuyYx-YZkG-ypq-150" value="" style="shape=partialRectangle;html=1;whiteSpace=wrap;connectable=0;overflow=hidden;fillColor=none;top=0;left=0;bottom=0;right=0;pointerEvents=1;rounded=0;fontFamily=Helvetica;fontSize=16;fontColor=default;startSize=0;strokeColor=default;" vertex="1" parent="jL4y7jOuyYx-YZkG-ypq-147">
          <mxGeometry x="200" width="100" height="40" as="geometry">
            <mxRectangle width="100" height="40" as="alternateBounds" />
          </mxGeometry>
        </mxCell>
        <mxCell id="jL4y7jOuyYx-YZkG-ypq-151" value="" style="shape=partialRectangle;html=1;whiteSpace=wrap;connectable=0;overflow=hidden;fillColor=none;top=0;left=0;bottom=0;right=0;pointerEvents=1;rounded=0;fontFamily=Helvetica;fontSize=16;fontColor=default;startSize=0;strokeColor=default;" vertex="1" parent="jL4y7jOuyYx-YZkG-ypq-147">
          <mxGeometry x="300" width="100" height="40" as="geometry">
            <mxRectangle width="100" height="40" as="alternateBounds" />
          </mxGeometry>
        </mxCell>
        <mxCell id="jL4y7jOuyYx-YZkG-ypq-152" value="1" style="shape=partialRectangle;html=1;whiteSpace=wrap;connectable=0;overflow=hidden;fillColor=none;top=0;left=0;bottom=0;right=0;pointerEvents=1;rounded=0;fontFamily=Helvetica;fontSize=16;fontColor=default;startSize=0;strokeColor=default;" vertex="1" parent="jL4y7jOuyYx-YZkG-ypq-147">
          <mxGeometry x="400" width="100" height="40" as="geometry">
            <mxRectangle width="100" height="40" as="alternateBounds" />
          </mxGeometry>
        </mxCell>
      </root>
    </mxGraphModel>
  </diagram>
</mxfile>
